<svg xmlns="http://www.w3.org/2000/svg" viewBox="0 0 1130 800" width="450"> <path id="Layer" opacity="1" fill="040404" d="M1108.14 197.65C1105.26 192.05 1102.15 186.57 1098.82 181.23C1095.49 175.89 1091.95 170.68 1088.19 165.63C1084.44 160.57 1080.48 155.67 1076.33 150.94C1072.18 146.21 1067.83 141.65 1063.31 137.27L441.45 132.09L953.45 71.3C945.09 68.5 936.63 66.03 928.07 63.9C919.52 61.77 910.89 59.97 902.19 58.51C893.5 57.05 884.75 55.94 875.97 55.16C867.19 54.39 858.38 53.96 849.57 53.88C800.28 20.23 736.93 0 667.83 0C605.83 0 548.5 16.29 501.76 43.93C462 26.6 416.74 16.81 368.65 16.81C230.48 16.81 115.35 97.71 89.52 205L1108.14 197.65Z" ></path> <path id="Layer" opacity="1" fill="040404" d="M1130 287.6C1129.99 280.28 1129.57 272.96 1128.75 265.69C1127.92 258.42 1126.69 251.19 1125.06 244.06C1123.43 236.92 1121.41 229.88 1119 222.96C1116.58 216.05 1113.79 209.28 1110.62 202.68L32.86 298.35C30.13 302.51 27.55 306.77 25.12 311.12C22.7 315.46 20.42 319.9 18.31 324.4C16.2 328.91 14.25 333.49 12.46 338.14C10.68 342.79 9.06 347.5 7.61 352.26L341.36 394.32L0 424.99C10.27 546.44 133.43 642.35 283.88 642.35C359.61 642.35 428.42 618.04 479.41 578.41C530.56 618.79 600 643.6 676.58 643.6C790.15 643.6 888.18 588.93 933.83 509.88C1025.41 485.31 1096.55 423.6 1120.9 346.42L698.83 291.1L1130 291.1C1130 289.95 1130 288.79 1130 287.6Z" ></path> <path id="Layer" fill="none" stroke="#535461" strokeWidth="2" d="M283.42 553.07C283.42 553.07 237.2 486.38 245.05 423.44C245.91 416.9 246.24 410.3 246.03 403.71C245.83 397.11 245.1 390.55 243.84 384.07C242.59 377.59 240.81 371.23 238.54 365.04C236.26 358.85 233.49 352.85 230.25 347.1C228.68 344.36 227.05 341.66 225.35 339C223.66 336.34 221.9 333.71 220.09 331.13C218.27 328.55 216.4 326.01 214.47 323.51C212.54 321.02 210.55 318.57 208.51 316.16" ></path> <path id="Layer" fill="#00ffff" d="M213.22 276.47C216.22 285.52 208.51 317.21 208.51 317.21C208.51 317.21 183.42 296.38 180.42 287.32C178.99 282.97 179.33 278.23 181.39 274.14C183.45 270.04 187.05 266.94 191.4 265.5C195.74 264.06 200.49 264.41 204.58 266.47C208.67 268.52 211.78 272.12 213.22 276.47L213.22 276.47Z" ></path> <path id="Layer" fill="#00ffff" d="M256.92 317.66C254.52 326.89 230.83 349.3 230.83 349.3C230.83 349.3 221.09 318.18 223.5 308.95C224.6 304.46 227.46 300.6 231.43 298.23C235.4 295.86 240.15 295.18 244.63 296.35C249.1 297.52 252.92 300.43 255.23 304.43C257.54 308.44 258.15 313.2 256.92 317.66L256.92 317.66Z" ></path> <path id="Layer" fill="#00ffff" d="M284.11 403.77C277.37 410.53 245.61 417.91 245.61 417.91C245.61 417.91 252.92 386.13 259.61 379.38C262.84 376.14 267.23 374.31 271.82 374.31C276.4 374.3 280.79 376.11 284.03 379.35C287.28 382.58 289.1 386.97 289.11 391.55C289.12 396.13 287.3 400.53 284.07 403.77L284.11 403.77Z" ></path> <path id="Layer" fill="#00ffff" d="M290 473.6C284.5 481.39 254.44 494.04 254.44 494.04C254.44 494.04 256.27 461.48 261.77 453.69C264.41 449.95 268.43 447.41 272.94 446.63C277.46 445.85 282.1 446.89 285.84 449.53C289.58 452.17 292.12 456.19 292.9 460.7C293.68 465.22 292.64 469.86 290 473.6L290 473.6Z" ></path> <path id="Layer" fill="#00ffff" d="M197 362.45C205.58 366.61 238 363.13 238 363.13C238 363.13 220.64 335.53 212 331.36C207.9 329.56 203.27 329.41 199.06 330.96C194.86 332.51 191.43 335.63 189.48 339.66C187.54 343.69 187.23 348.32 188.64 352.57C190.04 356.83 193.04 360.37 197 362.45L197 362.45Z" ></path> <path id="Layer" fill="#00ffff" d="M204.91 443.98C214.35 445.38 244.25 432.36 244.25 432.36C244.25 432.36 219.42 411.21 210 409.81C205.47 409.14 200.86 410.29 197.18 413.02C193.5 415.75 191.05 419.82 190.38 424.36C189.7 428.89 190.86 433.5 193.59 437.18C196.31 440.86 200.39 443.3 204.92 443.98L204.91 443.98Z" ></path> <path id="Layer" fill="#00ffff" d="M223.49 522.16C232.56 525.16 264.23 517.36 264.23 517.36C264.23 517.36 243.33 492.36 234.23 489.36C229.88 487.93 225.14 488.29 221.05 490.36C216.96 492.42 213.86 496.03 212.43 500.38C211 504.73 211.36 509.47 213.43 513.56C215.49 517.65 219.1 520.75 223.45 522.18L223.49 522.16Z" ></path> <path id="Layer" fill="#03dddd" d="M213.22 276.47C216.22 285.52 208.51 317.21 208.51 317.21C208.51 317.21 183.42 296.38 180.42 287.32C178.99 282.97 179.33 278.23 181.39 274.14C183.45 270.04 187.05 266.94 191.4 265.5C195.74 264.06 200.49 264.41 204.58 266.47C208.67 268.52 211.78 272.12 213.22 276.47L213.22 276.47Z" ></path> <path id="Layer" fill="#03dddd" d="M256.92 317.66C254.52 326.89 230.83 349.3 230.83 349.3C230.83 349.3 221.09 318.18 223.5 308.95C224.6 304.46 227.46 300.6 231.43 298.23C235.4 295.86 240.15 295.18 244.63 296.35C249.1 297.52 252.92 300.43 255.23 304.43C257.54 308.44 258.15 313.2 256.92 317.66L256.92 317.66Z" ></path> <path id="Layer" fill="#03dddd" d="M284.11 403.77C277.37 410.53 245.61 417.91 245.61 417.91C245.61 417.91 252.92 386.13 259.61 379.38C262.84 376.14 267.23 374.31 271.82 374.31C276.4 374.3 280.79 376.11 284.03 379.35C287.28 382.58 289.1 386.97 289.11 391.55C289.12 396.13 287.3 400.53 284.07 403.77L284.11 403.77Z" ></path> <path id="Layer" fill="#03dddd" d="M290 473.6C284.5 481.39 254.44 494.04 254.44 494.04C254.44 494.04 256.27 461.48 261.77 453.69C264.41 449.95 268.43 447.41 272.94 446.63C277.46 445.85 282.1 446.89 285.84 449.53C289.58 452.17 292.12 456.19 292.9 460.7C293.68 465.22 292.64 469.86 290 473.6L290 473.6Z" ></path> <path id="Layer" fill="#03dddd" d="M197 362.45C205.58 366.61 238 363.13 238 363.13C238 363.13 220.64 335.53 212 331.36C207.9 329.56 203.27 329.41 199.06 330.96C194.86 332.51 191.43 335.63 189.48 339.66C187.54 343.69 187.23 348.32 188.64 352.57C190.04 356.83 193.04 360.37 197 362.45L197 362.45Z" ></path> <path id="Layer" fill="#03dddd" d="M204.91 443.98C214.35 445.38 244.25 432.36 244.25 432.36C244.25 432.36 219.42 411.21 210 409.81C205.47 409.14 200.86 410.29 197.18 413.02C193.5 415.75 191.05 419.82 190.38 424.36C189.7 428.89 190.86 433.5 193.59 437.18C196.31 440.86 200.39 443.3 204.92 443.98L204.91 443.98Z" ></path> <path id="Layer" fill="#03dddd" d="M223.49 522.16C232.56 525.16 264.23 517.36 264.23 517.36C264.23 517.36 243.33 492.36 234.23 489.36C229.88 487.93 225.14 488.29 221.05 490.36C216.96 492.42 213.86 496.03 212.43 500.38C211 504.73 211.36 509.47 213.43 513.56C215.49 517.65 219.1 520.75 223.45 522.18L223.49 522.16Z" ></path> <path id="Layer" fill="none" stroke="#535461" strokeWidth="2" d="M283.16 550.39C283.16 550.39 213.88 508.15 195.54 447.39C193.67 441.06 191.3 434.9 188.44 428.95C185.59 423.01 182.25 417.3 178.48 411.89C174.71 406.48 170.51 401.38 165.92 396.64C161.33 391.9 156.37 387.54 151.08 383.6C148.54 381.73 145.95 379.93 143.32 378.18C140.69 376.43 138.03 374.75 135.32 373.12C132.62 371.5 129.87 369.93 127.1 368.44C124.32 366.94 121.51 365.5 118.67 364.13" ></path> <path id="Layer" fill="#00ffff" d="M106.89 325.97C113.3 333.03 119.09 365.12 119.09 365.12C119.09 365.12 87.72 356.24 81.31 349.18C78.23 345.79 76.63 341.31 76.85 336.74C77.07 332.16 79.1 327.86 82.5 324.79C85.89 321.71 90.36 320.1 94.94 320.33C99.51 320.55 103.81 322.58 106.89 325.97L106.89 325.97Z" ></path> <path id="Layer" fill="#00ffff" d="M163.54 345.91C165.08 355.33 152.54 385.42 152.54 385.42C152.54 385.42 131 360.91 129.45 351.49C128.71 346.97 129.8 342.34 132.47 338.62C135.14 334.9 139.19 332.4 143.71 331.66C148.23 330.92 152.85 332 156.57 334.68C160.29 337.35 162.8 341.39 163.54 345.91L163.54 345.91Z" ></path> <path id="Layer" fill="#00ffff" d="M223.29 413.6C219.86 422.51 193.82 442.13 193.82 442.13C193.82 442.13 187.62 410.13 191.04 401.21C192.69 396.94 195.96 393.49 200.15 391.63C204.33 389.76 209.08 389.64 213.36 391.28C217.63 392.93 221.08 396.2 222.94 400.39C224.81 404.57 224.93 409.32 223.29 413.6L223.29 413.6Z" ></path> <path id="Layer" fill="#00ffff" d="M257 475.03C255.13 484.39 232.77 508.13 232.77 508.13C232.77 508.13 221.25 477.62 223.12 468.27C224.02 463.78 226.66 459.83 230.47 457.28C234.28 454.74 238.95 453.82 243.44 454.71C247.93 455.61 251.88 458.25 254.43 462.06C256.97 465.87 257.89 470.54 257 475.03L257 475.03Z" ></path> <path id="Layer" fill="#00ffff" d="M126.88 411.15C136.42 411.48 164.65 395.15 164.65 395.15C164.65 395.15 137.6 376.95 128.06 376.6C123.48 376.44 119.03 378.11 115.68 381.24C112.34 384.36 110.37 388.69 110.21 393.27C110.05 397.85 111.72 402.3 114.85 405.65C117.97 408.99 122.3 410.96 126.88 411.12L126.88 411.15Z" ></path> <path id="Layer" fill="#00ffff" d="M167.17 482.47C176.37 479.93 198.43 455.91 198.43 455.91C198.43 455.91 167.16 446.6 158 449.18C153.54 450.36 149.74 453.27 147.44 457.28C145.14 461.28 144.54 466.03 145.77 470.48C147 474.92 149.95 478.69 153.98 480.95C158.01 483.2 162.77 483.75 167.2 482.47L167.17 482.47Z" ></path> <path id="Layer" fill="#00ffff" d="M215.84 546.42C225.34 545.42 251.14 525.52 251.14 525.52C251.14 525.52 221.89 511.1 212.4 512.05C207.84 512.51 203.65 514.75 200.75 518.3C197.85 521.85 196.48 526.4 196.94 530.95C197.39 535.51 199.64 539.7 203.19 542.6C206.73 545.5 211.28 546.88 215.84 546.42L215.84 546.42Z" ></path> <path id="Layer" opacity="0.102" fill="#6c63ff" d="M565.71 744.7C466.72 744.7 386.71 739.95 386.71 734.08C386.71 728.21 466.72 723.46 565.71 723.46C664.7 723.46 744.71 728.21 744.71 734.08C744.71 739.95 664.7 744.7 565.71 744.7Z" ></path> <path id="Layer" opacity="0.102" fill="#6c63ff" d="M746.87 792.97C705.2 792.97 671.52 786.83 671.52 779.25C671.52 771.67 705.2 765.53 746.87 765.53C788.54 765.53 822.22 771.67 822.22 779.25C822.22 786.83 788.54 792.97 746.87 792.97Z" ></path> <path id="Layer" fill="#c8cad7" d="M648 715.41L648 721.82L458.38 721.82L458.38 716.6C469.95 712.31 479.98 704.69 487.21 694.7C494.45 684.71 498.55 672.8 499.01 660.47C499.47 648.15 496.26 635.96 489.79 625.46C483.32 614.96 473.88 606.61 462.67 601.48L646.75 601.48C635.79 606.51 626.53 614.6 620.08 624.78C613.63 634.96 610.26 646.8 610.4 658.85C610.53 670.9 614.15 682.66 620.82 692.7C627.5 702.74 636.94 710.62 648 715.41Z" ></path> <path id="Layer" opacity="0.102" fill="#000000" d="M646.75 601.49C642.53 603.43 638.54 605.83 634.86 608.65C631.17 611.47 627.81 614.69 624.84 618.25C621.87 621.82 619.3 625.7 617.19 629.83C615.08 633.97 613.44 638.32 612.29 642.82L497.13 642.82C495.98 638.32 494.34 633.97 492.23 629.83C490.12 625.7 487.55 621.82 484.58 618.25C481.61 614.69 478.25 611.47 474.56 608.65C470.88 605.83 466.89 603.43 462.67 601.49L646.75 601.49Z" ></path> <path id="Layer" fill="#c8cad7" d="M241.21 568.82L241.21 604.82C241.21 624.7 255.76 640.82 273.71 640.82L831.71 640.82C849.66 640.82 864.21 624.7 864.21 604.82L864.21 568.82L241.21 568.82Z"></path> <path id="Layer" opacity="0.102" fill="#000000" d="M648 715.41L648 721.82L458.38 721.82L458.38 716.6C459.68 716.12 460.96 715.59 462.22 715.03C463.48 714.46 464.73 713.85 465.95 713.2C467.17 712.55 468.37 711.86 469.55 711.13C470.72 710.4 471.88 709.63 473 708.82L636.4 708.82C637.3 709.47 638.23 710.1 639.16 710.7C640.1 711.3 641.06 711.88 642.02 712.43C642.99 712.98 643.98 713.5 644.97 714C645.97 714.5 646.98 714.97 648 715.41L648 715.41Z" ></path> <path id="Layer" fill="#c8cad7" d="M405.21 710.82L701.21 710.82C706.46 710.82 710.71 715.07 710.71 720.32L710.71 720.32C710.71 725.57 706.46 729.82 701.21 729.82L405.21 729.82C399.96 729.82 395.71 725.57 395.71 720.32L395.71 720.32C395.71 715.07 399.96 710.82 405.21 710.82Z" ></path> <path id="Layer" fill="#474157" d="M864.21 174.32C864.21 170.05 863.37 165.83 861.74 161.88C860.1 157.94 857.71 154.36 854.69 151.34C851.67 148.32 848.09 145.93 844.15 144.29C840.2 142.66 835.98 141.82 831.71 141.82L273.71 141.82C269.44 141.82 265.22 142.66 261.27 144.29C257.33 145.93 253.75 148.32 250.73 151.34C247.71 154.36 245.32 157.94 243.68 161.88C242.05 165.83 241.21 170.05 241.21 174.32L241.21 575.82L864.21 575.82L864.21 174.32Z" ></path> <path id="Layer" fill="#ededf4" d="M274.21 172.82L831.21 172.82C840.06 172.82 847.21 179.97 847.21 188.82L847.21 533.82C847.21 542.67 840.06 549.82 831.21 549.82L274.21 549.82C265.36 549.82 258.21 542.67 258.21 533.82L258.21 188.82C258.21 179.97 265.36 172.82 274.21 172.82Z" ></path> <path id="Layer" fill="#ffffff" d="M552.71 164.82C548.56 164.82 545.21 161.47 545.21 157.32C545.21 153.17 548.56 149.82 552.71 149.82C556.86 149.82 560.21 153.17 560.21 157.32C560.21 161.47 556.86 164.82 552.71 164.82Z"></path> <path id="Layer" fill="#ffffff" d="M552.71 624.82C542.48 624.82 534.21 616.55 534.21 606.32C534.21 596.09 542.48 587.82 552.71 587.82C562.94 587.82 571.21 596.09 571.21 606.32C571.21 616.55 562.94 624.82 552.71 624.82Z"></path> <path id="Layer" fill="#c8cad7" d="M847.21 188.82L258.21 188.82C258.21 186.72 258.62 184.64 259.43 182.7C260.23 180.76 261.41 178.99 262.9 177.51C264.38 176.02 266.15 174.84 268.09 174.04C270.03 173.23 272.11 172.82 274.21 172.82L831.21 172.82C833.31 172.82 835.39 173.23 837.33 174.04C839.27 174.84 841.04 176.02 842.52 177.51C844.01 178.99 845.19 180.76 845.99 182.7C846.8 184.64 847.21 186.72 847.21 188.82Z" ></path> <path id="Layer" fill="#ededf4" d="M274.21 184.82C272 184.82 270.21 183.03 270.21 180.82C270.21 178.61 272 176.82 274.21 176.82C276.42 176.82 278.21 178.61 278.21 180.82C278.21 183.03 276.42 184.82 274.21 184.82Z"></path> <path id="Layer" fill="#ededf4" d="M286.21 184.82C284 184.82 282.21 183.03 282.21 180.82C282.21 178.61 284 176.82 286.21 176.82C288.42 176.82 290.21 178.61 290.21 180.82C290.21 183.03 288.42 184.82 286.21 184.82Z"></path> <path id="Layer" fill="#ededf4" d="M298.21 184.82C296 184.82 294.21 183.03 294.21 180.82C294.21 178.61 296 176.82 298.21 176.82C300.42 176.82 302.21 178.61 302.21 180.82C302.21 183.03 300.42 184.82 298.21 184.82Z"></path> <path id="Layer" fill="#6c63ff" d="M280.21 202.32L431.21 202.32L431.21 211.32L280.21 211.32L280.21 202.32Z"></path> <path id="Layer" fill="#6c63ff" d="M280.21 465.32L431.21 465.32L431.21 474.32L280.21 474.32L280.21 465.32Z"></path> <path id="Layer" opacity="0.2" fill="#6c63ff" d="M280.21 485.32L560.21 485.32L560.21 494.32L280.21 494.32L280.21 485.32Z"></path> <path id="Layer" opacity="0.2" fill="#6c63ff" d="M280.21 498.33L560.21 498.33L560.21 507.33L280.21 507.33L280.21 498.33Z"></path> <path id="Layer" opacity="0.2" fill="#6c63ff" d="M280.21 511.33L560.21 511.33L560.21 520.33L280.21 520.33L280.21 511.33Z"></path> <path id="Layer" opacity="0.2" fill="#6c63ff" d="M280.21 226.32L558.21 226.32L558.21 377.32L280.21 377.32L280.21 226.32Z"></path> <path id="Layer" opacity="0.2" fill="#6c63ff" d="M283.21 391.32L348.21 391.32L348.21 451.32L283.21 451.32L283.21 391.32Z"></path> <path id="Layer" opacity="0.2" fill="#6c63ff" d="M493.21 391.32L558.21 391.32L558.21 451.32L493.21 451.32L493.21 391.32Z"></path> <path id="Layer" opacity="0.2" fill="#6c63ff" d="M386.71 391.32L451.71 391.32L451.71 451.32L386.71 451.32L386.71 391.32Z"></path> <path id="Layer" opacity="0.2" fill="#6c63ff" d="M617.55 270.24L808.88 270.24L808.88 411.07L617.55 411.07L617.55 270.24Z"></path> <path id="Layer" fill="#ededf4" d="M637.71 298.82L788.71 298.82L788.71 307.82L637.71 307.82L637.71 298.82Z"></path> <path id="Layer" fill="#ededf4" d="M637.71 317.49L788.71 317.49L788.71 326.49L637.71 326.49L637.71 317.49Z"></path> <path id="Layer" fill="#ededf4" d="M637.71 336.16L788.71 336.16L788.71 345.16L637.71 345.16L637.71 336.16Z"></path> <path id="Layer" fill="#ededf4" d="M637.71 354.82L788.71 354.82L788.71 363.82L637.71 363.82L637.71 354.82Z"></path> <path id="Layer" fill="#ededf4" d="M637.71 373.49L788.71 373.49L788.71 382.49L637.71 382.49L637.71 373.49Z"></path> <path id="Layer" fill="#d3d1f6" d="M632.71 459.16L783.71 459.16L783.71 468.16L632.71 468.16L632.71 459.16Z"></path> <path id="Layer" fill="#d3d1f6" d="M632.71 477.82L783.71 477.82L783.71 486.82L632.71 486.82L632.71 477.82Z"></path> <path id="Layer" fill="#d3d1f6" d="M632.71 496.49L783.71 496.49L783.71 505.49L632.71 505.49L632.71 496.49Z"></path> <path id="Layer" fill="#6c63ff" d="M632.88 427.07L777.55 427.07L777.55 452.4L632.88 452.4L632.88 427.07Z"></path> <path id="Layer" fill="#6c63ff" d="M633.15 511.47L730.16 511.47L730.16 528.46L633.15 528.46L633.15 511.47Z"></path> <path id="Layer" opacity="0.102" fill="#6c63ff" d="M258.43 778.27C242.61 778.27 229.83 776.97 229.83 775.37C229.83 773.77 242.61 772.47 258.43 772.47C274.25 772.47 287.03 773.77 287.03 775.37C287.03 776.97 274.25 778.27 258.43 778.27Z" ></path> <path id="Layer" opacity="0.102" fill="#6c63ff" d="M843.87 735.64C834.39 735.64 826.73 734.86 826.73 733.9C826.73 732.94 834.39 732.16 843.87 732.16C853.35 732.16 861.01 732.94 861.01 733.9C861.01 734.86 853.35 735.64 843.87 735.64Z" ></path> <path id="Layer" fill="#219c00" d="M268.42 727.6C268.42 727.6 231.12 746.87 250.42 769.6C250.42 769.6 252.23 774.6 257.48 774.18C257.48 774.18 256.43 772.27 260.48 770.75C260.83 770.61 261.18 770.46 261.52 770.3C261.87 770.14 262.21 769.98 262.54 769.8C262.88 769.62 263.21 769.43 263.53 769.23C263.85 769.03 264.17 768.83 264.48 768.61C264.9 768.32 265.3 768 265.66 767.64C266.03 767.29 266.37 766.9 266.68 766.49C266.98 766.08 267.26 765.65 267.49 765.2C267.73 764.75 267.93 764.28 268.09 763.79L268.09 763.79C268.09 763.79 275.72 753.58 269.81 734.69C269.81 734.69 270.57 729.35 269.9 728.49L265.32 734.6C265.32 734.6 270.01 737.74 270.54 742.36C270.54 742.36 265.66 734.61 264.6 735.49C264.39 735.67 262.35 738.89 262.35 738.89C262.35 738.89 270.47 744.4 271.08 751.55C271.08 751.55 266.5 741.55 261.56 740.1L258.77 745.15C258.77 745.15 267.65 750.55 268.65 758.67C268.65 758.67 263.5 748.37 258.24 746.29L256.16 751.62C256.16 751.62 264.71 757.06 265.5 763.82C265.5 763.82 258.35 752.52 255.77 752.82C255.77 752.82 254.16 757.82 254.37 759.37C254.37 759.37 260.42 763.37 260.53 767.37C260.53 767.37 254.95 760.32 254.09 760.79C254.09 760.79 253.73 767.87 255.45 771.56C255.45 771.56 252.51 766.3 252.98 760.79C252.55 761.17 252.15 761.59 251.77 762.03C251.4 762.47 251.07 762.94 250.76 763.43C250.46 763.92 250.19 764.44 249.97 764.97C249.74 765.5 249.55 766.04 249.4 766.6C249.25 767.16 247.79 762.7 253.09 759.12C253.09 759.12 253.59 753.61 254.2 752.93C254.2 752.93 248.47 755.72 246.04 759.16C246.04 759.16 246.93 754.04 254.7 751.5L256.7 746.1C256.7 746.1 248.94 749.39 246.55 752.29C246.55 752.29 248.27 747.21 257.31 744.78L259.99 739.78C259.99 739.78 253.09 742.1 249.73 744.78C249.73 744.78 252.34 740.42 260.82 738.41L263 735.3C263 735.3 258 737.09 256.6 737.73C255.2 738.37 254.92 738.05 254.92 738.05C255.56 737.51 256.23 737.02 256.94 736.57C257.64 736.13 258.38 735.73 259.14 735.39C259.9 735.04 260.68 734.75 261.48 734.52C262.28 734.28 263.1 734.1 263.92 733.98C264.74 733.86 268.77 727.89 268.42 727.6Z" ></path> <path id="Layer" opacity="0.102" fill="#6c63ff" d="M169.3 733.41C157.18 733.41 147.38 732.42 147.38 731.19C147.38 729.96 157.18 728.97 169.3 728.97C181.42 728.97 191.22 729.96 191.22 731.19C191.22 732.42 181.42 733.41 169.3 733.41Z" ></path> <path id="Layer" fill="#219c00" d="M177 696.6C177 696.6 148.42 711.36 163.18 728.76C163.39 729.3 163.68 729.8 164.04 730.25C164.4 730.69 164.83 731.08 165.32 731.39C165.8 731.71 166.33 731.94 166.88 732.09C167.44 732.24 168.02 732.3 168.59 732.27C169.16 732.24 167.79 730.81 170.86 729.64C171.13 729.53 171.4 729.42 171.66 729.3C171.93 729.17 172.19 729.04 172.45 728.91C172.7 728.77 172.96 728.63 173.21 728.47C173.46 728.32 173.7 728.17 173.94 728C174.26 727.78 174.57 727.53 174.85 727.26C175.13 726.98 175.39 726.69 175.63 726.37C175.86 726.06 176.07 725.73 176.25 725.38C176.43 725.03 176.59 724.67 176.71 724.3L176.71 724.3C176.71 724.3 182.55 716.48 178.02 702.01C178.02 702.01 178.61 697.91 178.09 697.25L174.62 702.02C174.62 702.02 178.21 704.43 178.62 707.96C178.62 707.96 174.88 702.03 174.07 702.7C173.91 702.84 172.35 705.31 172.35 705.31C172.35 705.31 178.57 709.53 179.04 715.01C179.04 715.01 175.53 707.33 171.74 706.24L169.61 710.1C169.61 710.1 176.4 714.24 177.17 720.46C177.17 720.46 173.22 712.57 169.17 710.98L167.58 715.06C167.58 715.06 174.14 719.23 174.74 724.41C174.74 724.41 169.26 715.75 167.28 716.02C167.28 716.02 166.05 719.86 166.21 721.02C166.21 721.02 170.85 724.12 170.93 727.16C170.93 727.16 166.65 721.76 165.99 722.16C165.99 722.16 165.72 727.58 167.04 730.41C166.71 729.78 166.41 729.13 166.17 728.46C165.92 727.79 165.71 727.1 165.55 726.41C165.39 725.71 165.28 725.01 165.21 724.3C165.14 723.59 165.12 722.87 165.14 722.16C164.81 722.45 164.51 722.77 164.22 723.1C163.94 723.44 163.68 723.79 163.45 724.17C163.22 724.54 163.01 724.93 162.84 725.33C162.66 725.73 162.52 726.15 162.4 726.57C162.28 726.99 161.17 723.57 165.23 720.84C165.23 720.84 165.61 716.62 166.08 716.1C166.08 716.1 161.69 718.24 159.83 720.87C159.83 720.87 160.51 716.95 166.46 715L167.97 710.86C167.97 710.86 162.02 713.38 160.18 715.61C160.18 715.61 161.5 711.71 168.43 709.85L170.49 706.04C170.49 706.04 165.2 707.82 162.62 709.85C162.62 709.85 164.62 706.5 171.12 704.97L172.79 702.58C172.79 702.58 168.96 703.95 167.89 704.45C166.82 704.95 166.6 704.69 166.6 704.69C167.09 704.28 167.6 703.9 168.14 703.56C168.68 703.22 169.24 702.92 169.82 702.65C170.4 702.39 171 702.17 171.61 701.99C172.23 701.8 172.85 701.67 173.48 701.57C174.11 701.47 177.22 696.8 177 696.6Z" ></path> <path id="Layer" fill="#219c00" d="M851.74 705.01C851.74 705.01 829.39 716.6 840.93 730.16C841.09 730.58 841.32 730.97 841.6 731.32C841.89 731.67 842.22 731.97 842.6 732.22C842.98 732.46 843.39 732.64 843.83 732.76C844.26 732.88 844.71 732.92 845.16 732.9C845.61 732.88 844.53 731.76 846.94 730.84C847.15 730.76 847.36 730.67 847.57 730.57C847.78 730.48 847.98 730.38 848.18 730.27C848.38 730.16 848.58 730.05 848.78 729.93C848.97 729.81 849.16 729.69 849.35 729.56C849.6 729.39 849.84 729.19 850.06 728.98C850.28 728.76 850.48 728.53 850.66 728.29C850.85 728.04 851.01 727.79 851.15 727.51C851.29 727.24 851.41 726.96 851.51 726.67L851.51 726.67C851.51 726.67 856.08 720.55 852.51 709.24C852.51 709.24 852.96 706.04 852.56 705.52L849.85 709.24C849.85 709.24 852.66 711.13 852.98 713.9C852.98 713.9 850.05 709.25 849.42 709.78C849.29 709.89 848.07 711.78 848.07 711.78C848.07 711.78 852.94 715.08 853.3 719.36C853.3 719.36 850.56 713.36 847.6 712.51L846 715.6C846 715.6 851.31 718.83 851.91 723.7C851.91 723.7 848.83 717.53 845.67 716.28L844.43 719.48C844.43 719.48 849.55 722.73 850.03 726.79C850.03 726.79 845.74 720.01 844.2 720.23C844.09 720.55 843.99 720.87 843.9 721.19C843.81 721.51 843.73 721.84 843.66 722.16C843.59 722.49 843.53 722.82 843.48 723.15C843.43 723.48 843.39 723.82 843.36 724.15C843.33 724.48 846.98 726.57 847.05 728.95C847.05 728.95 843.7 724.73 843.19 725.01C843.19 725.01 842.97 729.25 844 731.46C843.74 730.97 843.51 730.46 843.32 729.93C843.13 729.41 842.97 728.87 842.84 728.33C842.72 727.79 842.63 727.24 842.57 726.68C842.52 726.13 842.5 725.57 842.52 725.01C842.26 725.24 842.02 725.48 841.8 725.75C841.58 726.01 841.38 726.29 841.2 726.58C841.02 726.87 840.86 727.18 840.72 727.49C840.58 727.8 840.47 728.13 840.38 728.46C840.29 728.79 839.38 726.12 842.59 723.98C842.59 723.98 842.89 720.68 843.25 720.27C843.25 720.27 839.82 721.94 838.37 724C838.37 724 838.9 720.93 843.55 719.41L844.73 716.18C844.73 716.18 840.08 718.18 838.64 719.88C838.64 719.88 839.64 716.88 845.1 715.38L846.7 712.38C846.16 712.56 845.62 712.76 845.09 712.98C844.56 713.2 844.04 713.43 843.53 713.68C843.01 713.93 842.51 714.2 842.01 714.48C841.52 714.77 841.03 715.07 840.55 715.38C840.07 715.69 842.12 712.77 847.2 711.57L848.5 709.7C848.5 709.7 845.5 710.78 844.67 711.16C843.84 711.54 843.67 711.35 843.67 711.35C844.05 711.03 844.45 710.73 844.87 710.47C845.3 710.2 845.74 709.96 846.19 709.76C846.64 709.55 847.11 709.38 847.59 709.23C848.07 709.09 848.56 708.98 849.05 708.91C849.54 708.84 851.94 705.21 851.74 705.01Z" ></path> <path id="Layer" opacity="0.102" fill="#6c63ff" d="M936.04 799.2C912.95 799.2 894.29 797.64 894.29 795.71C894.29 793.78 912.95 792.22 936.04 792.22C959.13 792.22 977.79 793.78 977.79 795.71C977.79 797.64 959.13 799.2 936.04 799.2Z" ></path> <path id="Layer" fill="#219c00" d="M969.47 685.6C969.23 685.93 969 686.27 968.79 686.61C968.57 686.96 968.37 687.31 968.18 687.67C967.99 688.03 967.81 688.4 967.65 688.77C967.48 689.14 967.33 689.52 967.19 689.9C967.05 690.27 966.92 690.7 966.78 691.11C966.72 691.08 966.65 691.05 966.59 691.03C966.52 691 966.45 690.97 966.39 690.95C966.32 690.93 966.25 690.91 966.18 690.89C966.12 690.87 966.05 690.85 965.98 690.83C965.69 690.76 965.4 690.7 965.1 690.65C964.81 690.6 964.51 690.56 964.21 690.53C963.91 690.51 963.62 690.5 963.32 690.5C963.02 690.49 962.72 690.51 962.42 690.53C962.42 690.06 962.47 689.58 962.49 689.06C962.63 683.79 962.01 676.44 956.98 679.56C952.16 682.56 955.6 687.56 958.71 690.76C958.98 691.04 959.25 691.3 959.51 691.55C956.68 693.55 956.13 698.28 955.66 703.19C955.19 708.1 951.02 713.47 948.26 716.52L947.47 717.37C946.92 716.93 946.32 716.54 945.68 716.23C945.05 715.91 944.38 715.66 943.69 715.48C943 715.3 942.3 715.2 941.59 715.17C940.88 715.14 940.17 715.18 939.47 715.3C939.35 714.87 939.23 714.42 939.09 713.95C936.86 705.86 932.21 691.85 926.27 688.78C926.53 688.47 926.79 688.14 927.06 687.78C929.58 684.48 932.41 679.59 928.22 678.34C924.03 677.09 923.66 682.58 923.89 686.7C923.89 687.22 923.93 687.71 924.01 688.17C923.59 688.19 923.18 688.25 922.77 688.35C922.36 688.46 921.97 688.6 921.59 688.79C921.22 688.97 920.86 689.19 920.53 689.45C920.2 689.7 919.89 689.99 919.62 690.31L918.98 689.54C915.58 685.54 909.34 679.17 907.46 683.98C905.7 688.46 911.18 694.28 915.04 697.65L915.29 697.86C912.69 708.37 924 716.94 930.09 720.69L930.88 721.17C922.48 731.07 917.3 749.63 917.3 749.63L940.82 753.83C940.82 753.83 956.41 740.37 954.42 727.73L954.58 727.73C970.16 724.61 973.71 707.99 971.28 698.12L971.55 698.01C972.26 697.72 972.94 697.39 973.61 697.01C974.27 696.63 974.91 696.21 975.52 695.75C976.12 695.29 976.7 694.79 977.25 694.26C977.79 693.72 978.3 693.15 978.77 692.55C983.09 686.47 974 679.6 969.47 685.6Z" ></path> <path id="Layer" opacity="0.102" fill="#000000" d="M969.47 685.6C969.23 685.93 969 686.27 968.79 686.61C968.57 686.96 968.37 687.31 968.18 687.67C967.99 688.03 967.81 688.4 967.65 688.77C967.48 689.14 967.33 689.52 967.19 689.9C967.05 690.27 966.92 690.7 966.78 691.11C966.72 691.08 966.65 691.05 966.59 691.03C966.52 691 966.45 690.97 966.39 690.95C966.32 690.93 966.25 690.91 966.18 690.89C966.12 690.87 966.05 690.85 965.98 690.83C965.69 690.76 965.4 690.7 965.1 690.65C964.81 690.6 964.51 690.56 964.21 690.53C963.91 690.51 963.62 690.5 963.32 690.5C963.02 690.49 962.72 690.51 962.42 690.53C962.42 690.06 962.47 689.58 962.49 689.06C962.63 683.79 962.01 676.44 956.98 679.56C952.16 682.56 955.6 687.56 958.71 690.76C958.98 691.04 959.25 691.3 959.51 691.55C956.68 693.55 956.13 698.28 955.66 703.19C955.19 708.1 951.02 713.47 948.26 716.52L947.47 717.37C946.92 716.93 946.32 716.54 945.68 716.23C945.05 715.91 944.38 715.66 943.69 715.48C943 715.3 942.3 715.2 941.59 715.17C940.88 715.14 940.17 715.18 939.47 715.3C939.35 714.87 939.23 714.42 939.09 713.95C936.86 705.86 932.21 691.85 926.27 688.78C926.53 688.47 926.79 688.14 927.06 687.78C929.58 684.48 932.41 679.59 928.22 678.34C924.03 677.09 923.66 682.58 923.89 686.7C923.89 687.22 923.93 687.71 924.01 688.17C923.59 688.19 923.18 688.25 922.77 688.35C922.36 688.46 921.97 688.6 921.59 688.79C921.22 688.97 920.86 689.19 920.53 689.45C920.2 689.7 919.89 689.99 919.62 690.31L918.98 689.54C915.58 685.54 909.34 679.17 907.46 683.98C905.7 688.46 911.18 694.28 915.04 697.65L915.29 697.86C912.69 708.37 924 716.94 930.09 720.69L930.88 721.17C922.48 731.07 917.3 749.63 917.3 749.63L940.82 753.83C940.82 753.83 956.41 740.37 954.42 727.73L954.58 727.73C970.16 724.61 973.71 707.99 971.28 698.12L971.55 698.01C972.26 697.72 972.94 697.39 973.61 697.01C974.27 696.63 974.91 696.21 975.52 695.75C976.12 695.29 976.7 694.79 977.25 694.26C977.79 693.72 978.3 693.15 978.77 692.55C983.09 686.47 974 679.6 969.47 685.6Z" ></path> <path id="Layer" fill="#ff004e" d="M922.65 692.36L919.9 700.36C919.9 700.36 918.37 699.28 916.44 697.58C912.59 694.21 907.1 688.39 908.86 683.91C910.74 679.1 916.98 685.45 920.38 689.47C921.74 691.12 922.65 692.36 922.65 692.36Z" ></path> <path id="Layer" fill="#ff004e" d="M928.46 687.76C928.25 688.03 928.04 688.31 927.82 688.58C927.6 688.84 927.38 689.11 927.16 689.37C926.94 689.64 926.71 689.9 926.48 690.16C926.25 690.41 926.02 690.67 925.78 690.92C925.72 690.57 925.66 690.22 925.61 689.87C925.56 689.51 925.52 689.16 925.48 688.81C925.44 688.45 925.4 688.1 925.37 687.74C925.34 687.39 925.31 687.04 925.29 686.68C925.06 682.56 925.49 677.09 929.62 678.32C933.75 679.55 931 684.46 928.46 687.76Z" ></path> <path id="Layer" fill="#ff004e" d="M963.93 689.03C963.84 691.68 963.58 693.8 963.58 693.8C963.28 693.56 962.98 693.32 962.68 693.08C962.39 692.83 962.1 692.58 961.81 692.32C961.53 692.07 961.25 691.8 960.97 691.54C960.69 691.27 960.42 691 960.15 690.73C957.04 687.5 953.6 682.52 958.42 679.53C963.45 676.41 964.07 683.76 963.93 689.03Z" ></path> <path id="Layer" fill="#ff004e" d="M980.17 692.5C979.7 693.1 979.19 693.67 978.65 694.2C978.11 694.74 977.53 695.24 976.92 695.7C976.31 696.16 975.68 696.58 975.01 696.96C974.35 697.34 973.67 697.67 972.96 697.96C972.76 698.04 972.56 698.13 972.36 698.21C972.17 698.29 971.96 698.36 971.76 698.43C971.56 698.51 971.36 698.58 971.15 698.65C970.95 698.71 970.75 698.78 970.54 698.84L967.3 694.29C967.38 693.91 967.48 693.54 967.57 693.17C967.67 692.8 967.77 692.42 967.89 692.06C968 691.69 968.11 691.32 968.24 690.96C968.36 690.59 968.49 690.23 968.63 689.87C968.77 689.49 968.92 689.11 969.09 688.74C969.25 688.37 969.43 688 969.62 687.64C969.81 687.28 970.01 686.93 970.23 686.58C970.44 686.24 970.67 685.9 970.91 685.57C975.39 679.6 984.53 686.47 980.17 692.5Z" ></path> <path id="Layer" opacity="0.102" fill="#000000" d="M920.38 689.52C921.74 691.12 922.65 692.36 922.65 692.36L919.9 700.36C919.9 700.36 918.37 699.28 916.44 697.58C916.55 696.94 916.7 696.31 916.88 695.68C917.07 695.06 917.29 694.45 917.55 693.85C917.81 693.26 918.11 692.68 918.44 692.12C918.78 691.56 919.14 691.02 919.54 690.51C919.61 690.42 919.67 690.34 919.74 690.25C919.81 690.17 919.88 690.09 919.95 690C920.02 689.92 920.09 689.84 920.16 689.76C920.23 689.68 920.31 689.6 920.38 689.52Z" ></path> <path id="Layer" opacity="0.102" fill="#000000" d="M928.46 687.76C928.25 688.03 928.04 688.31 927.82 688.58C927.6 688.84 927.38 689.11 927.16 689.37C926.94 689.64 926.71 689.9 926.48 690.16C926.25 690.41 926.02 690.67 925.78 690.92C925.72 690.57 925.66 690.22 925.61 689.87C925.56 689.51 925.52 689.16 925.48 688.81C925.44 688.45 925.4 688.1 925.37 687.74C925.34 687.39 925.31 687.04 925.29 686.68C925.57 686.69 925.86 686.71 926.14 686.76C926.41 686.81 926.69 686.88 926.96 686.98C927.23 687.07 927.49 687.18 927.74 687.31C927.99 687.44 928.23 687.59 928.46 687.76L928.46 687.76Z" ></path> <path id="Layer" fill="#209900" d="M942 719.72L935.16 722.72C935.16 722.72 933.66 722 931.51 720.66C924.33 716.24 909.87 705.11 919.51 691.99C929.15 678.87 937.28 702.4 940.51 713.91C941.46 717.36 942 719.72 942 719.72Z"></path> <path id="Layer" opacity="0.102" fill="#000000" d="M960.15 690.73C960.4 690.48 960.67 690.25 960.96 690.04C961.25 689.84 961.55 689.66 961.88 689.52C962.2 689.37 962.54 689.26 962.88 689.18C963.22 689.09 963.58 689.05 963.93 689.03C963.84 691.68 963.58 693.8 963.58 693.8C963.28 693.56 962.98 693.32 962.68 693.08C962.39 692.83 962.1 692.58 961.81 692.32C961.53 692.07 961.25 691.8 960.97 691.54C960.69 691.27 960.42 691 960.15 690.73L960.15 690.73Z" ></path> <path id="Layer" opacity="0.102" fill="#000000" d="M973 697.96C972.8 698.04 972.6 698.13 972.4 698.21C972.21 698.29 972 698.36 971.8 698.43C971.6 698.51 971.4 698.58 971.19 698.65C970.99 698.71 970.79 698.78 970.58 698.84L967.34 694.29C967.42 693.91 967.52 693.54 967.61 693.17C967.71 692.8 967.81 692.42 967.93 692.06C968.04 691.69 968.15 691.32 968.28 690.96C968.4 690.59 968.53 690.23 968.67 689.87C970.72 691.09 972.26 694.13 973 697.96Z" ></path> <path id="Layer" fill="#219c00" d="M956 727.68C955.62 727.76 955.23 727.83 954.84 727.88C931.92 731.37 947.28 719 947.28 719C947.28 719 948.28 718.05 949.72 716.49C952.48 713.49 956.64 708.1 957.12 703.16C957.84 695.73 958.67 688.76 967.44 690.8C976.21 692.84 977.68 723.33 956 727.68Z" ></path> <path id="Layer" fill="#6c63ff" d="M911.74 784.77L955.55 784.77L955.55 796.29L911.74 796.29L911.74 784.77Z"></path> <path id="Layer" fill="#6259fc" d="M904.77 747.33L962.01 747.33L962.01 787.53L904.77 787.53L904.77 747.33Z"></path> <path id="Layer" opacity="0.102" fill="#000000" d="M911.74 784.77L955.55 784.77L955.55 796.29L911.74 796.29L911.74 784.77Z"></path> <path id="Layer" opacity="0.102" fill="#000000" d="M904.77 747.33L962.01 747.33L962.01 787.53L904.77 787.53L904.77 747.33Z"></path> <path id="Layer" fill="#8881fd" d="M914.62 784.77L958.43 784.77L958.43 796.29L914.62 796.29L914.62 784.77Z"></path> <path id="Layer" opacity="0.102" fill="#000000" d="M940.49 713.92C941.49 717.36 941.98 719.72 941.98 719.72L935.14 722.72C935.14 722.72 933.64 722 931.49 720.66C934.17 717.27 937.2 714.71 940.49 713.92Z"></path> <path id="Layer" opacity="0.102" fill="#ff004e" d="M956 727.68C955.62 727.76 955.23 727.83 954.84 727.88C931.92 731.37 947.28 719 947.28 719C947.28 719 948.28 718.05 949.72 716.49C954 719.92 955.75 723.78 956 727.68Z"></path> <path id="Layer" fill="#219c00" d="M918.7 749.6C918.7 749.6 931.54 703.6 949.54 717.79C967.54 731.98 942.22 753.79 942.22 753.79L918.7 749.6Z"></path> <path id="Layer" opacity="0.102" fill="#000000" d="M925.18 700.65C924.38 700.65 923.74 700.01 923.74 699.21C923.74 698.41 924.38 697.77 925.18 697.77C925.98 697.77 926.62 698.41 926.62 699.21C926.62 700.01 925.98 700.65 925.18 700.65Z" ></path> <path id="Layer" opacity="0.102" fill="#000000" d="M925.06 707.37C924.26 707.37 923.62 706.73 923.62 705.93C923.62 705.13 924.26 704.49 925.06 704.49C925.86 704.49 926.5 705.13 926.5 705.93C926.5 706.73 925.86 707.37 925.06 707.37Z" ></path> <path id="Layer" opacity="0.102" fill="#000000" d="M966.82 701.97C966.02 701.97 965.38 701.33 965.38 700.53C965.38 699.73 966.02 699.09 966.82 699.09C967.62 699.09 968.26 699.73 968.26 700.53C968.26 701.33 967.62 701.97 966.82 701.97Z" ></path> <path id="Layer" opacity="0.102" fill="#000000" d="M933.22 736.41C932.42 736.41 931.78 735.77 931.78 734.97C931.78 734.17 932.42 733.53 933.22 733.53C934.02 733.53 934.66 734.17 934.66 734.97C934.66 735.77 934.02 736.41 933.22 736.41Z" ></path> <path id="Layer" opacity="0.102" fill="#000000" d="M963.82 713.13C963.02 713.13 962.38 712.49 962.38 711.69C962.38 710.89 963.02 710.25 963.82 710.25C964.62 710.25 965.26 710.89 965.26 711.69C965.26 712.49 964.62 713.13 963.82 713.13Z" ></path> <path id="Layer" opacity="0.102" fill="#000000" d="M948.94 728.01C948.14 728.01 947.5 727.37 947.5 726.57C947.5 725.77 948.14 725.13 948.94 725.13C949.74 725.13 950.38 725.77 950.38 726.57C950.38 727.37 949.74 728.01 948.94 728.01Z" ></path> <path id="Layer" opacity="0.102" fill="#000000" d="M930.1 703.53C929.3 703.53 928.66 702.89 928.66 702.09C928.66 701.29 929.3 700.65 930.1 700.65C930.9 700.65 931.54 701.29 931.54 702.09C931.54 702.89 930.9 703.53 930.1 703.53Z"></path> <path id="Layer" opacity="0.102" fill="#000000" d="M962.86 706.29C962.06 706.29 961.42 705.65 961.42 704.85C961.42 704.05 962.06 703.41 962.86 703.41C963.66 703.41 964.3 704.05 964.3 704.85C964.3 705.65 963.66 706.29 962.86 706.29Z" ></path> <path id="Layer" opacity="0.102" fill="#000000" d="M957.94 717.45C957.14 717.45 956.5 716.81 956.5 716.01C956.5 715.21 957.14 714.57 957.94 714.57C958.74 714.57 959.38 715.21 959.38 716.01C959.38 716.81 958.74 717.45 957.94 717.45Z" ></path> <path id="Layer" opacity="0.102" fill="#000000" d="M942.82 735.33C942.02 735.33 941.38 734.69 941.38 733.89C941.38 733.09 942.02 732.45 942.82 732.45C943.62 732.45 944.26 733.09 944.26 733.89C944.26 734.69 943.62 735.33 942.82 735.33Z" ></path> <path id="Layer" opacity="0.102" fill="#000000" d="M939.7 728.25C938.9 728.25 938.26 727.61 938.26 726.81C938.26 726.01 938.9 725.37 939.7 725.37C940.5 725.37 941.14 726.01 941.14 726.81C941.14 727.61 940.5 728.25 939.7 728.25Z"></path> <path id="Layer" opacity="0.102" fill="#000000" d="M932.26 712.29C931.46 712.29 930.82 711.65 930.82 710.85C930.82 710.05 931.46 709.41 932.26 709.41C933.06 709.41 933.7 710.05 933.7 710.85C933.7 711.65 933.06 712.29 932.26 712.29Z" ></path> <path id="Layer" opacity="0.102" fill="#6c63ff" d="M914.62 784.77L958.43 784.77L958.43 788.98L914.62 788.98L914.62 784.77Z"></path> <path id="Layer" fill="#6c63ff" d="M907.66 747.33L964.9 747.33L964.9 787.53L907.66 787.53L907.66 747.33Z"></path> <path id="Layer" opacity="0.102" fill="#000000" d="M944.74 741.81C943.94 741.81 943.3 741.17 943.3 740.37C943.3 739.57 943.94 738.93 944.74 738.93C945.54 738.93 946.18 739.57 946.18 740.37C946.18 741.17 945.54 741.81 944.74 741.81Z" ></path> <path id="Layer" opacity="0.102" fill="#000000" d="M936.1 743.61C935.3 743.61 934.66 742.97 934.66 742.17C934.66 741.37 935.3 740.73 936.1 740.73C936.9 740.73 937.54 741.37 937.54 742.17C937.54 742.97 936.9 743.61 936.1 743.61Z"></path> <g> <path id="Layer" fill="#ffb9b9" d="M708.83 490.77C708.83 490.77 687.66 480.65 688 489.39C688.34 498.12 709.34 503.87 709.34 503.87L708.83 490.77Z"></path> <path id="Layer" fill="#2f2e41" d="M720.45 564.69C720.45 564.69 710.46 589.14 706.77 606.78C703.08 624.43 697.46 648.71 704.69 665.93C711.92 683.15 732.48 733.75 732.69 739.22C732.9 744.68 730.93 750.22 735.3 750.05C739.66 749.88 763.44 742.4 764.4 739.08C765.37 735.76 756.29 727.36 756.29 727.36L733.88 657.14L757.26 611.39L774.13 679.64L777.43 764.82C777.43 764.82 793.64 759.82 796 764.1C796 764.1 803.26 753.98 804.18 749.57C805.11 745.16 800.75 661.11 800.75 661.11C800.75 661.11 815.63 565.37 803.62 565.84C791.61 566.31 744.55 537.51 720.45 564.69Z" ></path> <path id="Layer" fill="#3c3b4d" d="M735.13 745.68C735.13 745.68 724.04 770.18 723 771.31C721.95 772.44 714.72 783.66 720.18 783.45C725.65 783.24 738.54 777.27 748.03 768.15C757.52 759.03 770.03 743.24 768.9 742.19C767.76 741.14 759.99 738.16 759.99 738.16L735.13 745.68Z" ></path> <path id="Layer" fill="#3c3b4d" d="M779.4 759.28C779.4 759.28 778.73 770.24 776.72 774.7C774.71 779.15 774.96 785.7 780.42 785.49C785.88 785.28 799.99 782.54 799.99 782.54C799.99 782.54 800.83 775.95 799.7 774.9C798.56 773.85 793.73 762 795.79 758.64C797.84 755.28 779.4 759.28 779.4 759.28Z" ></path> <path id="Layer" fill="#ffb9b9" d="M787.48 403.5C787.48 403.5 799.12 421.64 803.66 425.84C808.2 430.04 795.43 439.28 795.43 439.28L772.58 442.36C772.58 442.36 772.87 421.56 771.69 419.42C770.52 417.28 787.48 403.5 787.48 403.5Z" ></path> <path id="Layer" fill="#6c63ff" d="M767.62 427.24C767.62 427.24 772.33 435.8 776.7 435.63C781.07 435.46 803.66 425.84 804.63 422.52C805.59 419.2 812.11 446.29 812.11 446.29L756.82 543.59L743.33 534.27L749.87 477.14L755.24 446.31L767.62 427.24Z" ></path> <path id="Layer" fill="#575a89" d="M806.67 514.32C804.46 518.93 803.08 523.74 803.27 528.67C803.28 528.88 803.29 529.1 803.31 529.32C803.83 539.43 807.56 551.12 808.89 559.62C809.86 565.72 809.59 570.17 806.02 571.22C797.36 573.74 807.28 575.54 773.8 586.68C740.33 597.83 734.49 588.21 734.4 586.02C734.32 583.84 739.14 567.25 738.01 566.2C736.88 565.15 722.14 579.94 717.68 577.92C713.23 575.91 717.18 564.82 717.18 564.82C717.18 564.82 727.21 541.46 727 536C726.78 530.54 742.19 504.78 742.19 504.78L752.67 436.57C752.67 436.57 756.7 427.66 762.12 426.36C767.54 425.05 772.03 428.16 772.03 428.16L762.97 448.2L753.4 483.57L755 496.63C755 496.63 766.12 473.23 773.43 464.2C780.74 455.16 796.31 433.78 796.31 433.78C796.31 433.78 799.95 421.51 797.2 417.84C794.46 414.16 808.66 413.61 814.71 428.69C817.92 436.68 823.13 448.6 826.39 459.69C829.3 469.52 830.67 478.71 827.79 483.96C823.39 491.99 812.31 502.54 806.67 514.32Z" ></path> <path id="Layer" opacity="0.102" fill="#000000" d="M827.79 483.96C823.39 491.99 812.31 502.54 806.67 514.32C805.19 509 803.39 503.5 803.39 503.5C803.39 503.5 796.49 466.58 816.9 457.04C817.74 456.96 818.58 456.96 819.42 457.03C820.26 457.11 821.08 457.26 821.89 457.48C822.7 457.71 823.49 458.01 824.24 458.38C825 458.75 825.72 459.19 826.39 459.69C829.3 469.52 830.67 478.71 827.79 483.96Z" ></path> <path id="Layer" fill="#575a89" d="M746.76 481.64L729.46 486.68L705.43 487.62L702.96 508.49L742.45 511.34C742.45 511.34 752.31 483.61 746.76 481.64Z"></path> <path id="Layer" fill="#ffb9b9" d="M774.98 551.83C774.98 551.83 751.83 555.67 757.11 562.64C762.4 569.61 782.9 562.28 782.9 562.28L774.98 551.83Z"></path> <path id="Layer" opacity="0.102" fill="#000000" d="M803.31 529.32C803.83 539.43 807.56 551.12 808.89 559.62C801.52 566.6 794.5 572.76 791.86 572.86C786.4 573.07 777.62 572.32 774.39 573.54C771.15 574.75 769.26 554.05 769.26 554.05C769.26 554.05 771.19 547.41 779.8 543.79C785.61 541.35 796.75 534.72 803.31 529.32Z" ></path> <path id="Layer" fill="#575a89" d="M816.65 450.49C816.65 450.49 835.13 447.59 834.13 478.25C833.13 508.91 836.08 528.49 828.65 534.24C821.21 540 797.07 566.09 791.61 566.31C786.15 566.52 777.37 565.76 774.13 566.98C770.9 568.2 769 547.49 769 547.49C769 547.49 770.93 540.86 779.54 537.24C788.15 533.63 808.44 520.81 808.27 516.44C808.1 512.07 803.14 496.95 803.14 496.95C803.14 496.95 796.24 460.03 816.65 450.49Z" ></path> <path id="Layer" fill="#ffb9b9" d="M771.19 430.36C784.48 430.36 795.23 419.61 795.23 406.32C795.23 393.02 784.48 382.27 771.19 382.27C757.89 382.27 747.14 393.02 747.14 406.32C747.14 419.61 757.89 430.36 771.19 430.36Z"></path> <path id="Layer" fill="#2f2e41" d="M755 371.85C754.85 371.98 754.7 372.09 754.54 372.2C754.38 372.3 754.22 372.4 754.05 372.49C753.88 372.57 753.7 372.65 753.52 372.71C753.34 372.77 753.16 372.83 752.97 372.87C752.79 372.9 752.6 372.9 752.41 372.86C752.23 372.82 752.05 372.74 751.9 372.63C751.74 372.53 751.61 372.39 751.51 372.23C751.41 372.07 751.34 371.9 751.3 371.71C750.75 372.85 750.13 374.07 749.01 374.65C747.88 375.24 746.15 374.75 745.99 373.49C745.95 373.73 745.89 373.96 745.82 374.19C745.74 374.42 745.66 374.64 745.55 374.86C745.45 375.08 745.33 375.29 745.2 375.49C745.07 375.69 744.92 375.88 744.77 376.07C744.07 376.73 742.81 376.9 742.2 376.15C742.69 378.84 742.39 381.6 742.54 384.33C742.69 387.06 743.42 389.95 745.48 391.75C748.49 394.36 753.01 393.72 756.96 393.22C757.11 393.19 757.26 393.17 757.41 393.16C757.57 393.15 757.72 393.14 757.87 393.15C758.02 393.16 758.17 393.18 758.32 393.21C758.47 393.24 758.62 393.27 758.76 393.32C760.24 393.95 760.18 396.01 760.2 397.62C760.26 399.02 760.56 400.4 761.1 401.7C761.64 402.99 762.4 404.18 763.35 405.21C764.3 406.24 765.43 407.1 766.67 407.74C767.92 408.38 769.27 408.8 770.66 408.97C771.05 409.03 771.44 409.05 771.83 409.04C772.23 409.02 772.61 408.96 773 408.87C773.38 408.78 773.75 408.65 774.1 408.48C774.46 408.32 774.8 408.12 775.11 407.88C776.24 406.93 776.81 405.38 778.1 404.67C780.19 403.5 782.73 405.2 784.26 407.04C785.79 408.88 787.3 411.15 789.67 411.48C792.8 411.93 795.19 408.74 796.36 405.79C797.17 403.74 797.76 401.61 798.15 399.43C798.53 397.25 798.69 395.05 798.64 392.84C798.58 390.63 798.3 388.43 797.81 386.28C797.32 384.13 796.61 382.03 795.7 380.02C789.15 365.75 766.79 363.49 755 371.85Z" ></path> <path id="Layer" fillRule="evenodd" fill="#e34b24" d="M298.09 401.67L331.91 401.67L328.84 436.4L314.96 440.33L301.17 436.4L298.09 401.67ZM309.41 417.37L309.04 413L325.24 413L325.61 408.78L304.39 408.78L305.51 421.68L320.21 421.68L319.69 427.19L315 428.49L310.24 427.19L309.93 423.79L305.73 423.79L306.26 430.51L315 432.84L323.66 430.52L324.86 417.38L309.41 417.38L309.41 417.37Z" ></path> <path id="Layer" fillRule="evenodd" fill="#006eba" d="M401.43 403.49L434.94 403.49L431.89 437.9L418.15 441.79L404.48 437.9L401.43 403.49ZM407.67 410.52L408.01 414.71L424.17 414.71L423.76 419.05L413.16 419.05L413.55 423.15L423.41 423.15L422.83 428.78L418.18 430.06L413.47 428.77L413.17 425.4L409 425.4L409.47 431.55L418.18 434.27L426.76 431.83L428.7 410.53L407.67 410.52Z" ></path> <path id="Layer" fillRule="evenodd" fill="#d6b203" d="M507.03 403.03L542.97 403.03L542.97 438.97L507.03 438.97L507.03 403.03ZM535.53 426.1C534.43 425.58 533.2 425.22 532.84 424.39C532.7 423.9 532.68 423.63 532.77 423.33C532.99 422.37 534.14 422.08 535.04 422.35C535.62 422.53 536.16 422.97 536.5 423.7C538.05 422.68 538.05 422.68 539.13 422.01C538.72 421.38 538.52 421.11 538.25 420.84C537.31 419.79 536.05 419.25 534.01 419.29L532.95 419.43C531.94 419.67 530.97 420.22 530.39 420.93C528.68 422.87 529.18 426.23 531.24 427.63C533.29 429.16 536.28 429.49 536.66 430.93C537.02 432.68 535.36 433.25 533.71 433.04C532.5 432.77 531.83 432.17 531.08 431.04L528.34 432.62C528.66 433.33 529.02 433.65 529.56 434.28C532.16 436.91 538.68 436.77 539.85 432.77C539.89 432.64 540.21 431.72 539.96 430.3L540.03 430.4C539.77 428.76 538.7 427.38 535.53 426.1ZM523.21 419.55C523.21 422.45 523.19 425.34 523.19 428.24C523.19 430.09 523.29 431.78 522.99 432.3C522.49 433.34 521.22 433.2 520.64 433.02C520.05 432.73 519.74 432.32 519.39 431.74C519.3 431.58 519.23 431.45 519.2 431.45L516.47 433.13C516.93 434.08 517.6 434.89 518.46 435.4C519.74 436.17 521.46 436.42 523.26 436.01C524.43 435.67 525.45 434.98 525.97 433.9C526.74 432.51 526.57 430.8 526.57 428.89C526.58 425.81 526.57 422.73 526.57 419.63L526.57 419.55L523.21 419.55Z" ></path> </g> </svg>